<?xml version="1.0" encoding="UTF-8"?>
<svg id="Layer_2" xmlns="http://www.w3.org/2000/svg" version="1.1" viewBox="0 0 397.4 397.4">
  <!-- Generator: Adobe Illustrator 29.7.1, SVG Export Plug-In . SVG Version: 2.1.1 Build 8)  -->
  <defs>
    <style>
      .st0 {
        fill: #121214;
      }

      .st1 {
        fill: #fff;
      }
    </style>
  </defs>
  <g id="objects">
    <g>
      <path class="st1" d="M397.4,198.7c0,109.7-88.9,198.7-198.7,198.7h0c-109.7,0-198.7-89-198.7-198.7h0C0,88.9,88.9,0,198.7,0h0c109.7,0,198.7,88.9,198.7,198.7h0Z"/>
      <path class="st0" d="M252.6,94.5h-107.8c-27.8,0-50.3,22.5-50.3,50.3v107.8c0,27.8,22.5,50.3,50.3,50.3h107.8c27.8,0,50.3-22.5,50.3-50.3v-107.8c0-27.8-22.5-50.3-50.3-50.3h0ZM284.9,249c0,19.8-16.1,35.9-35.9,35.9h-100.6c-19.8,0-35.9-16.1-35.9-35.9v-100.6c0-19.8,16.1-35.9,35.9-35.9h100.6c19.8,0,35.9,16.1,35.9,35.9v100.6h0Z"/>
      <path class="st0" d="M198.8,144.8c-29.8,0-53.9,24.1-53.9,53.9s24.1,53.9,53.9,53.9,53.9-24.1,53.9-53.9-24.1-53.9-53.9-53.9h0ZM198.8,234.6c-19.8,0-35.9-16.1-35.9-35.9s16.1-35.9,35.9-35.9,35.9,16.1,35.9,35.9-16.1,35.9-35.9,35.9Z"/>
      <path class="st0" d="M256.3,152c-5.9,0-10.8-4.8-10.8-10.8s4.8-10.8,10.8-10.8,10.8,4.8,10.8,10.8-4.8,10.8-10.8,10.8Z"/>
    </g>
  </g>
</svg>