<?xml version="1.0" encoding="UTF-8"?>
<svg id="Layer_1" xmlns="http://www.w3.org/2000/svg" version="1.1" viewBox="0 0 256 256">
  <!-- Generator: Adobe Illustrator 29.7.1, SVG Export Plug-In . SVG Version: 2.1.1 Build 8)  -->
  <defs>
    <style>
      .st0 {
        fill: #121214;
      }

      .st1 {
        fill: #fff;
      }
    </style>
  </defs>
  <path class="st1" d="M127.9,1.4C58,1.4,1.4,58,1.4,127.9s56.6,126.4,126.4,126.4,126.4-56.6,126.4-126.4S197.7,1.4,127.9,1.4ZM198,95.2c-.6,13.7-10.2,32.4-28.7,56.2-19.1,24.8-35.3,37.2-48.5,37.2s-15.1-7.6-20.8-22.7c-3.8-13.9-7.6-27.7-11.3-41.6-4.2-15.1-8.7-22.7-13.5-22.7s-4.7,2.2-11,6.6l-6.6-8.5c6.9-6.1,13.8-12.2,20.5-18.3,9.2-8,16.2-12.2,20.8-12.6,10.9-1.1,17.7,6.4,20.2,22.4,2.7,17.3,4.6,28,5.7,32.2,3.2,14.3,6.6,21.5,10.4,21.5s7.4-4.6,13.2-13.9c5.9-9.3,9-16.4,9.5-21.2.8-8-2.3-12-9.5-12s-6.8.8-10.4,2.3c6.9-22.6,20.1-33.6,39.6-33,14.4.4,21.2,9.8,20.4,28.1Z"/>
  <path class="st0" d="M198,95.1c-.6,13.7-10.2,32.4-28.7,56.2-19.1,24.8-35.3,37.2-48.5,37.2s-15.1-7.6-20.8-22.7c-3.8-13.9-7.6-27.7-11.3-41.6-4.2-15.1-8.7-22.7-13.5-22.7s-4.7,2.2-11,6.6l-6.6-8.5c6.9-6.1,13.8-12.2,20.5-18.3,9.2-8,16.2-12.2,20.8-12.6,10.9-1.1,17.7,6.4,20.2,22.4,2.7,17.3,4.6,28,5.7,32.2,3.2,14.3,6.6,21.5,10.4,21.5s7.4-4.6,13.2-13.9c5.9-9.3,9-16.4,9.5-21.2.8-8-2.3-12-9.5-12s-6.8.8-10.4,2.3c6.9-22.6,20.1-33.6,39.6-33,14.4.4,21.2,9.8,20.4,28.1Z"/>
</svg>