<svg width="48" height="48" viewBox="0 0 48 48" fill="none" xmlns="http://www.w3.org/2000/svg">
<rect x="0.5" y="47.5" width="47" height="47" rx="23.5" transform="rotate(-90 0.5 47.5)" stroke="white"/>
<path d="M36.7071 24.7071C37.0976 24.3166 37.0976 23.6834 36.7071 23.2929L30.3431 16.9289C29.9526 16.5384 29.3195 16.5384 28.9289 16.9289C28.5384 17.3195 28.5384 17.9526 28.9289 18.3431L34.5858 24L28.9289 29.6569C28.5384 30.0474 28.5384 30.6805 28.9289 31.0711C29.3195 31.4616 29.9526 31.4616 30.3431 31.0711L36.7071 24.7071ZM12 24L12 25L36 25L36 24L36 23L12 23L12 24Z" fill="white"/>
</svg>
