<svg width="48" height="48" viewBox="0 0 48 48" fill="none" xmlns="http://www.w3.org/2000/svg">
<rect x="0.5" y="0.5" width="47" height="47" rx="23.5" stroke="white"/>
<path d="M23.2929 36.7071C23.6834 37.0976 24.3166 37.0976 24.7071 36.7071L31.0711 30.3431C31.4616 29.9526 31.4616 29.3195 31.0711 28.9289C30.6805 28.5384 30.0474 28.5384 29.6569 28.9289L24 34.5858L18.3431 28.9289C17.9526 28.5384 17.3195 28.5384 16.9289 28.9289C16.5384 29.3195 16.5384 29.9526 16.9289 30.3431L23.2929 36.7071ZM24 12L23 12L23 36L24 36L25 36L25 12L24 12Z" fill="white"/>
</svg>
